<svg width="356" height="22" viewBox="0 0 356 22" xmlns="http://www.w3.org/2000/svg"><path d="M1.344 5.386V16.81h.64v-5.456H7.68v-.592H1.984V5.978h6.048v-.592zm8.528 3.216v8.208h.608V8.602zm-.016-3.216v1.472h.64V5.386zm3.376 3.76v5.488c0 .32.032.621.096.904.064.283.173.533.328.752.155.219.363.39.624.512.261.123.595.184 1 .184.256 0 .501-.024.736-.072.235-.048.427-.11.576-.184l-.16-.48a2.962 2.962 0 0 1-1.088.208c-.544 0-.93-.152-1.16-.456-.23-.304-.344-.744-.344-1.32V9.146h2.576v-.544H13.84V6.33h-.608v2.272h-1.264v.544zm8.768 0v5.488c0 .32.032.621.096.904.064.283.173.533.328.752.155.219.363.39.624.512.261.123.595.184 1 .184.256 0 .501-.024.736-.072.235-.048.427-.11.576-.184l-.16-.48a2.962 2.962 0 0 1-1.088.208c-.544 0-.93-.152-1.16-.456-.23-.304-.344-.744-.344-1.32V9.146h2.576v-.544h-2.576V6.33H22v2.272h-1.264v.544zm4.72-3.76V16.81h.608v-4.976c0-.48.053-.867.16-1.16.107-.293.32-.584.64-.872.661-.597 1.43-.896 2.304-.896.779 0 1.341.213 1.688.64.347.427.52 1.072.52 1.936v5.328h.608v-5.472c0-.95-.224-1.685-.672-2.208-.448-.523-1.13-.784-2.048-.784-.63 0-1.213.133-1.752.4-.539.267-1.021.688-1.448 1.264V5.386zm15.552 7.472v-.416c0-.587-.064-1.128-.192-1.624a3.717 3.717 0 0 0-.6-1.296 2.798 2.798 0 0 0-1.056-.864c-.432-.208-.947-.312-1.544-.312-.544 0-1.043.093-1.496.28a3.13 3.13 0 0 0-1.168.832c-.325.368-.579.827-.76 1.376-.181.55-.272 1.192-.272 1.928 0 1.365.32 2.424.96 3.176.64.752 1.557 1.128 2.752 1.128.48 0 .904-.059 1.272-.176.368-.117.685-.28.952-.488.267-.208.48-.453.64-.736a3.03 3.03 0 0 0 .336-.904h-.576a2.232 2.232 0 0 1-.824 1.272c-.421.325-1.005.488-1.752.488-.544 0-1.013-.09-1.408-.272a2.71 2.71 0 0 1-.984-.752 3.082 3.082 0 0 1-.576-1.152 5.628 5.628 0 0 1-.184-1.488zm-3.408-3.984c.512 0 .944.085 1.296.256.352.17.64.408.864.712.224.304.387.67.488 1.096.101.427.152.89.152 1.392h-5.872c.064-1.141.368-2.003.912-2.584s1.264-.872 2.16-.872zm9.568-.272h-.608v11.312h.608v-4.592c.31.63.725 1.077 1.248 1.344.523.267 1.088.4 1.696.4a3.74 3.74 0 0 0 1.488-.288 3.154 3.154 0 0 0 1.152-.84c.32-.368.568-.824.744-1.368.176-.544.264-1.173.264-1.888a6.61 6.61 0 0 0-.216-1.728 3.924 3.924 0 0 0-.656-1.376 3.091 3.091 0 0 0-1.104-.904c-.443-.219-.963-.328-1.56-.328-.747 0-1.365.168-1.856.504-.49.336-.89.787-1.2 1.352zm-.032 4.48v-.816c0-.544.088-1.05.264-1.52.176-.47.45-.864.824-1.184.277-.245.587-.419.928-.52a3.582 3.582 0 0 1 1.024-.152c.437 0 .837.077 1.2.232.363.155.675.392.936.712.261.32.461.717.6 1.192.139.475.208 1.032.208 1.672 0 .65-.072 1.216-.216 1.696-.144.48-.35.877-.616 1.192-.267.315-.587.55-.96.704-.373.155-.79.232-1.248.232-.363 0-.704-.05-1.024-.152a2.594 2.594 0 0 1-.896-.504c-.427-.395-.704-.832-.832-1.312a5.688 5.688 0 0 1-.192-1.472zm8.608-4.48v8.208h.608V8.602zm-.016-3.216v1.472h.64V5.386zm9.696 7.472v-.416c0-.587-.064-1.128-.192-1.624a3.717 3.717 0 0 0-.6-1.296 2.798 2.798 0 0 0-1.056-.864c-.432-.208-.947-.312-1.544-.312-.544 0-1.043.093-1.496.28a3.13 3.13 0 0 0-1.168.832c-.325.368-.579.827-.76 1.376-.181.55-.272 1.192-.272 1.928 0 1.365.32 2.424.96 3.176.64.752 1.557 1.128 2.752 1.128.48 0 .904-.059 1.272-.176.368-.117.685-.28.952-.488.267-.208.48-.453.64-.736a3.03 3.03 0 0 0 .336-.904h-.576a2.232 2.232 0 0 1-.824 1.272c-.421.325-1.005.488-1.752.488-.544 0-1.013-.09-1.408-.272a2.71 2.71 0 0 1-.984-.752 3.082 3.082 0 0 1-.576-1.152 5.628 5.628 0 0 1-.184-1.488zM63.28 8.874c.512 0 .944.085 1.296.256.352.17.64.408.864.712.224.304.387.67.488 1.096.101.427.152.89.152 1.392h-5.872c.064-1.141.368-2.003.912-2.584s1.264-.872 2.16-.872zm12.096 5.248h-.592c-.139.768-.437 1.36-.896 1.776-.459.416-1.077.624-1.856.624-.533 0-.992-.093-1.376-.28a2.572 2.572 0 0 1-.952-.784 3.464 3.464 0 0 1-.56-1.2 5.903 5.903 0 0 1-.184-1.512c0-.555.061-1.07.184-1.544.123-.475.312-.883.568-1.224.256-.341.579-.608.968-.8.39-.192.85-.288 1.384-.288.757 0 1.344.197 1.76.592.416.395.699.944.848 1.648l.56-.128c-.181-.864-.536-1.523-1.064-1.976-.528-.453-1.224-.68-2.088-.68-.576 0-1.096.101-1.56.304a3.26 3.26 0 0 0-1.184.872 3.97 3.97 0 0 0-.752 1.384c-.176.544-.264 1.163-.264 1.856 0 1.333.328 2.384.984 3.152.656.768 1.56 1.152 2.712 1.152.96 0 1.725-.267 2.296-.8.57-.533.925-1.248 1.064-2.144zm8.704-1.264v-.416c0-.587-.064-1.128-.192-1.624a3.717 3.717 0 0 0-.6-1.296 2.798 2.798 0 0 0-1.056-.864c-.432-.208-.947-.312-1.544-.312-.544 0-1.043.093-1.496.28a3.13 3.13 0 0 0-1.168.832c-.325.368-.579.827-.76 1.376-.181.55-.272 1.192-.272 1.928 0 1.365.32 2.424.96 3.176.64.752 1.557 1.128 2.752 1.128.48 0 .904-.059 1.272-.176.368-.117.685-.28.952-.488.267-.208.48-.453.64-.736a3.03 3.03 0 0 0 .336-.904h-.576a2.232 2.232 0 0 1-.824 1.272c-.421.325-1.005.488-1.752.488-.544 0-1.013-.09-1.408-.272a2.71 2.71 0 0 1-.984-.752 3.082 3.082 0 0 1-.576-1.152 5.628 5.628 0 0 1-.184-1.488zm-3.408-3.984c.512 0 .944.085 1.296.256.352.17.64.408.864.712.224.304.387.67.488 1.096.101.427.152.89.152 1.392H77.6c.064-1.141.368-2.003.912-2.584s1.264-.872 2.16-.872zm5.536 5.744h-.592c.043.427.157.795.344 1.104.187.31.427.563.72.76.293.197.64.344 1.04.44.4.096.835.144 1.304.144 1.045 0 1.821-.213 2.328-.64.507-.427.76-1.013.76-1.76 0-.384-.064-.704-.192-.96a1.85 1.85 0 0 0-.536-.648 2.758 2.758 0 0 0-.84-.424 7.412 7.412 0 0 0-1.088-.256l-1.024-.176c-.704-.117-1.21-.293-1.52-.528-.31-.235-.464-.597-.464-1.088 0-.235.04-.456.12-.664.08-.208.21-.39.392-.544.181-.155.427-.275.736-.36.31-.085.699-.128 1.168-.128.405 0 .75.035 1.032.104.283.07.517.17.704.304.187.133.341.301.464.504s.227.432.312.688l.544-.112a3.872 3.872 0 0 0-.312-.776 2.042 2.042 0 0 0-.544-.648 2.717 2.717 0 0 0-.88-.44c-.357-.112-.792-.168-1.304-.168-.981 0-1.73.205-2.248.616-.517.41-.776.968-.776 1.672 0 .373.07.683.208.928.139.245.325.45.56.616.235.165.512.293.832.384.32.09.667.168 1.04.232l.88.144c.79.128 1.339.325 1.648.592.31.267.464.656.464 1.168 0 .267-.043.512-.128.736a1.44 1.44 0 0 1-.416.584c-.192.165-.448.293-.768.384-.32.09-.715.136-1.184.136-.864 0-1.517-.16-1.96-.48-.443-.32-.717-.8-.824-1.44zM98.16 9.146v5.488c0 .32.032.621.096.904.064.283.173.533.328.752.155.219.363.39.624.512.261.123.595.184 1 .184.256 0 .501-.024.736-.072.235-.048.427-.11.576-.184l-.16-.48a2.962 2.962 0 0 1-1.088.208c-.544 0-.93-.152-1.16-.456-.23-.304-.344-.744-.344-1.32V9.146h2.576v-.544h-2.576V6.33h-.608v2.272h-1.264v.544zm5.04 3.568c0-.512.056-1 .168-1.464.112-.464.293-.872.544-1.224.25-.352.576-.63.976-.832.4-.203.888-.304 1.464-.304s1.064.101 1.464.304c.4.203.725.48.976.832.25.352.432.76.544 1.224.112.464.168.952.168 1.464s-.056.997-.168 1.456a3.507 3.507 0 0 1-.544 1.216c-.25.352-.576.63-.976.832-.4.203-.888.304-1.464.304s-1.064-.101-1.464-.304c-.4-.203-.725-.48-.976-.832a3.507 3.507 0 0 1-.544-1.216 6.12 6.12 0 0 1-.168-1.456zm6.944 0c0-.63-.077-1.21-.232-1.744a3.902 3.902 0 0 0-.704-1.384 3.24 3.24 0 0 0-1.184-.912c-.475-.219-1.027-.328-1.656-.328-.63 0-1.181.112-1.656.336a3.355 3.355 0 0 0-1.192.928c-.32.395-.56.856-.72 1.384a5.906 5.906 0 0 0-.24 1.72c0 .63.077 1.208.232 1.736.155.528.39.987.704 1.376.315.39.71.693 1.184.912.475.219 1.027.328 1.656.328.63 0 1.181-.112 1.656-.336.475-.224.872-.53 1.192-.92.32-.39.56-.85.72-1.384a5.93 5.93 0 0 0 .24-1.712zm8.864-4.112h-.608v1.44c-.31-.608-.725-1.043-1.248-1.304a3.774 3.774 0 0 0-1.712-.392c-.533 0-1.024.09-1.472.272-.448.181-.832.45-1.152.808-.32.357-.568.795-.744 1.312-.176.517-.264 1.112-.264 1.784 0 .597.072 1.15.216 1.656a3.7 3.7 0 0 0 .656 1.312c.293.368.659.659 1.096.872.437.213.955.32 1.552.32.768 0 1.395-.165 1.88-.496.485-.33.883-.768 1.192-1.312v1.744c0 .48-.045.904-.136 1.272-.09.368-.245.677-.464.928-.219.25-.512.44-.88.568-.368.128-.83.192-1.384.192-.875 0-1.536-.155-1.984-.464-.448-.31-.725-.747-.832-1.312h-.576c.043.405.16.755.352 1.048.192.293.435.53.728.712.293.181.637.315 1.032.4.395.085.816.128 1.264.128.64 0 1.181-.08 1.624-.24.443-.16.803-.39 1.08-.688.277-.299.477-.661.6-1.088a5.21 5.21 0 0 0 .184-1.44zm-.576 3.552v.784c0 .512-.088.99-.264 1.432-.176.443-.45.819-.824 1.128a2.545 2.545 0 0 1-.944.504c-.33.09-.661.136-.992.136-.907 0-1.627-.304-2.16-.912-.533-.608-.8-1.51-.8-2.704 0-1.227.28-2.139.84-2.736.56-.597 1.299-.896 2.216-.896.352 0 .688.048 1.008.144.32.096.619.256.896.48.213.17.387.36.52.568.133.208.237.427.312.656.075.23.125.464.152.704.027.24.04.477.04.712zm9.648.704v-.416c0-.587-.064-1.128-.192-1.624a3.717 3.717 0 0 0-.6-1.296 2.798 2.798 0 0 0-1.056-.864c-.432-.208-.947-.312-1.544-.312-.544 0-1.043.093-1.496.28a3.13 3.13 0 0 0-1.168.832c-.325.368-.579.827-.76 1.376-.181.55-.272 1.192-.272 1.928 0 1.365.32 2.424.96 3.176.64.752 1.557 1.128 2.752 1.128.48 0 .904-.059 1.272-.176.368-.117.685-.28.952-.488.267-.208.48-.453.64-.736a3.03 3.03 0 0 0 .336-.904h-.576a2.232 2.232 0 0 1-.824 1.272c-.421.325-1.005.488-1.752.488-.544 0-1.013-.09-1.408-.272a2.71 2.71 0 0 1-.984-.752 3.082 3.082 0 0 1-.576-1.152 5.628 5.628 0 0 1-.184-1.488zm-3.408-3.984c.512 0 .944.085 1.296.256.352.17.64.408.864.712.224.304.387.67.488 1.096.101.427.152.89.152 1.392H121.6c.064-1.141.368-2.003.912-2.584s1.264-.872 2.16-.872zm5.808.272v5.488c0 .32.032.621.096.904.064.283.173.533.328.752.155.219.363.39.624.512.261.123.595.184 1 .184.256 0 .501-.024.736-.072.235-.048.427-.11.576-.184l-.16-.48a2.962 2.962 0 0 1-1.088.208c-.544 0-.93-.152-1.16-.456-.23-.304-.344-.744-.344-1.32V9.146h2.576v-.544h-2.576V6.33h-.608v2.272h-1.264v.544zm4.72-3.76V16.81h.608v-4.976c0-.48.053-.867.16-1.16.107-.293.32-.584.64-.872.661-.597 1.43-.896 2.304-.896.779 0 1.341.213 1.688.64.347.427.52 1.072.52 1.936v5.328h.608v-5.472c0-.95-.224-1.685-.672-2.208-.448-.523-1.13-.784-2.048-.784-.63 0-1.213.133-1.752.4-.539.267-1.021.688-1.448 1.264V5.386zm15.552 7.472v-.416c0-.587-.064-1.128-.192-1.624a3.717 3.717 0 0 0-.6-1.296 2.798 2.798 0 0 0-1.056-.864c-.432-.208-.947-.312-1.544-.312-.544 0-1.043.093-1.496.28a3.13 3.13 0 0 0-1.168.832c-.325.368-.579.827-.76 1.376-.181.55-.272 1.192-.272 1.928 0 1.365.32 2.424.96 3.176.64.752 1.557 1.128 2.752 1.128.48 0 .904-.059 1.272-.176.368-.117.685-.28.952-.488.267-.208.48-.453.64-.736a3.03 3.03 0 0 0 .336-.904H150a2.232 2.232 0 0 1-.824 1.272c-.421.325-1.005.488-1.752.488-.544 0-1.013-.09-1.408-.272a2.71 2.71 0 0 1-.984-.752 3.082 3.082 0 0 1-.576-1.152 5.628 5.628 0 0 1-.184-1.488zm-3.408-3.984c.512 0 .944.085 1.296.256.352.17.64.408.864.712.224.304.387.67.488 1.096.101.427.152.89.152 1.392h-5.872c.064-1.141.368-2.003.912-2.584s1.264-.872 2.16-.872zm5.36-.272v8.208h.608v-5.04c0-.437.048-.779.144-1.024.096-.245.235-.475.416-.688.33-.373.67-.632 1.016-.776A2.87 2.87 0 0 1 156 9.066c.107 0 .2.003.28.008.08.005.168.018.264.04l.08-.592a4.336 4.336 0 0 0-.608-.048c-.565 0-1.075.133-1.528.4-.453.267-.845.65-1.176 1.152V8.602zm9.376.544v7.664h.608V9.146h2.384v-.544h-2.384V7.594c0-.619.155-1.072.464-1.36.31-.288.725-.432 1.248-.432.181 0 .347.013.496.04.15.026.299.061.448.104l.128-.512a3.824 3.824 0 0 0-1.12-.176c-.31 0-.603.048-.88.144a1.99 1.99 0 0 0-.728.44c-.208.197-.37.443-.488.736a2.77 2.77 0 0 0-.176 1.032v.992h-1.264v.544zm4.752 3.568c0-.512.056-1 .168-1.464.112-.464.293-.872.544-1.224.25-.352.576-.63.976-.832.4-.203.888-.304 1.464-.304s1.064.101 1.464.304c.4.203.725.48.976.832.25.352.432.76.544 1.224.112.464.168.952.168 1.464s-.056.997-.168 1.456a3.507 3.507 0 0 1-.544 1.216c-.25.352-.576.63-.976.832-.4.203-.888.304-1.464.304s-1.064-.101-1.464-.304c-.4-.203-.725-.48-.976-.832A3.507 3.507 0 0 1 167 14.17a6.12 6.12 0 0 1-.168-1.456zm6.944 0c0-.63-.077-1.21-.232-1.744a3.902 3.902 0 0 0-.704-1.384 3.24 3.24 0 0 0-1.184-.912c-.475-.219-1.027-.328-1.656-.328-.63 0-1.181.112-1.656.336a3.355 3.355 0 0 0-1.192.928c-.32.395-.56.856-.72 1.384a5.906 5.906 0 0 0-.24 1.72c0 .63.077 1.208.232 1.736.155.528.39.987.704 1.376.315.39.71.693 1.184.912.475.219 1.027.328 1.656.328.63 0 1.181-.112 1.656-.336.475-.224.872-.53 1.192-.92.32-.39.56-.85.72-1.384a5.93 5.93 0 0 0 .24-1.712zm1.984-4.112v8.208h.608v-5.04c0-.437.048-.779.144-1.024.096-.245.235-.475.416-.688.33-.373.67-.632 1.016-.776a2.87 2.87 0 0 1 1.112-.216c.107 0 .2.003.28.008.08.005.168.018.264.04l.08-.592a4.336 4.336 0 0 0-.608-.048c-.565 0-1.075.133-1.528.4-.453.267-.845.65-1.176 1.152V8.602zm9.632 5.6h-.576c.043.49.157.917.344 1.28.187.363.432.664.736.904s.659.419 1.064.536c.405.117.848.176 1.328.176 1.163 0 2.037-.32 2.624-.96.587-.64.88-1.541.88-2.704 0-.512-.061-.987-.184-1.424a3.025 3.025 0 0 0-.584-1.136 2.773 2.773 0 0 0-1.04-.76c-.427-.187-.944-.28-1.552-.28-.661 0-1.216.101-1.664.304a4.41 4.41 0 0 0-1.136.72L186 6.33h5.168v-.576h-5.68l-.448 5.76h.576a3.173 3.173 0 0 1 1.232-.872c.459-.176.96-.264 1.504-.264.523 0 .965.077 1.328.232.363.155.65.368.864.64.213.272.368.595.464.968.096.373.144.784.144 1.232 0 1.013-.23 1.781-.688 2.304-.459.523-1.19.784-2.192.784-.907 0-1.584-.205-2.032-.616-.448-.41-.73-.984-.848-1.72zm13.76-2.848v.576h3.36v3.472a4.52 4.52 0 0 1-1.576.84 6.108 6.108 0 0 1-1.816.28c-1.43 0-2.541-.467-3.336-1.4-.795-.933-1.192-2.275-1.192-4.024 0-1.717.381-3.05 1.144-4 .763-.95 1.816-1.424 3.16-1.424.96 0 1.72.237 2.28.712.56.475.941 1.117 1.144 1.928l.592-.144c-.245-.981-.704-1.739-1.376-2.272-.672-.533-1.547-.8-2.624-.8-.725 0-1.392.125-2 .376a4.229 4.229 0 0 0-1.576 1.128c-.443.501-.787 1.13-1.032 1.888-.245.757-.368 1.632-.368 2.624 0 .992.123 1.864.368 2.616s.592 1.376 1.04 1.872c.448.496.99.87 1.624 1.12.635.25 1.341.376 2.12.376.843 0 1.61-.136 2.304-.408.693-.272 1.28-.627 1.76-1.064v-4.272zm16.512 2.768h-.592c-.139.768-.437 1.36-.896 1.776-.459.416-1.077.624-1.856.624-.533 0-.992-.093-1.376-.28a2.572 2.572 0 0 1-.952-.784 3.464 3.464 0 0 1-.56-1.2 5.903 5.903 0 0 1-.184-1.512c0-.555.061-1.07.184-1.544.123-.475.312-.883.568-1.224.256-.341.579-.608.968-.8.39-.192.85-.288 1.384-.288.757 0 1.344.197 1.76.592.416.395.699.944.848 1.648l.56-.128c-.181-.864-.536-1.523-1.064-1.976-.528-.453-1.224-.68-2.088-.68-.576 0-1.096.101-1.56.304a3.26 3.26 0 0 0-1.184.872 3.97 3.97 0 0 0-.752 1.384c-.176.544-.264 1.163-.264 1.856 0 1.333.328 2.384.984 3.152.656.768 1.56 1.152 2.712 1.152.96 0 1.725-.267 2.296-.8.57-.533.925-1.248 1.064-2.144zm2.256-1.408c0-.512.056-1 .168-1.464.112-.464.293-.872.544-1.224.25-.352.576-.63.976-.832.4-.203.888-.304 1.464-.304s1.064.101 1.464.304c.4.203.725.48.976.832.25.352.432.76.544 1.224.112.464.168.952.168 1.464s-.056.997-.168 1.456a3.507 3.507 0 0 1-.544 1.216c-.25.352-.576.63-.976.832-.4.203-.888.304-1.464.304s-1.064-.101-1.464-.304c-.4-.203-.725-.48-.976-.832a3.507 3.507 0 0 1-.544-1.216 6.12 6.12 0 0 1-.168-1.456zm6.944 0c0-.63-.077-1.21-.232-1.744a3.902 3.902 0 0 0-.704-1.384 3.24 3.24 0 0 0-1.184-.912c-.475-.219-1.027-.328-1.656-.328-.63 0-1.181.112-1.656.336a3.355 3.355 0 0 0-1.192.928c-.32.395-.56.856-.72 1.384a5.906 5.906 0 0 0-.24 1.72c0 .63.077 1.208.232 1.736.155.528.39.987.704 1.376.315.39.71.693 1.184.912.475.219 1.027.328 1.656.328.63 0 1.181-.112 1.656-.336.475-.224.872-.53 1.192-.92.32-.39.56-.85.72-1.384a5.93 5.93 0 0 0 .24-1.712zm1.984-4.112v8.208h.608v-4.976c0-.48.053-.867.16-1.16.107-.293.32-.584.64-.872.661-.597 1.43-.896 2.304-.896.779 0 1.341.213 1.688.64.347.427.52 1.072.52 1.936v5.328h.608v-5.472c0-.939-.221-1.672-.664-2.2-.443-.528-1.128-.792-2.056-.792-.63 0-1.213.133-1.752.4-.539.267-1.021.688-1.448 1.264V8.602zm8.784 0v8.208h.608v-4.976c0-.48.053-.867.16-1.16.107-.293.32-.584.64-.872.661-.597 1.43-.896 2.304-.896.779 0 1.341.213 1.688.64.347.427.52 1.072.52 1.936v5.328h.608v-5.472c0-.939-.221-1.672-.664-2.2-.443-.528-1.128-.792-2.056-.792-.63 0-1.213.133-1.752.4-.539.267-1.021.688-1.448 1.264V8.602zm15.552 4.256v-.416c0-.587-.064-1.128-.192-1.624a3.717 3.717 0 0 0-.6-1.296 2.798 2.798 0 0 0-1.056-.864c-.432-.208-.947-.312-1.544-.312-.544 0-1.043.093-1.496.28a3.13 3.13 0 0 0-1.168.832c-.325.368-.579.827-.76 1.376-.181.55-.272 1.192-.272 1.928 0 1.365.32 2.424.96 3.176.64.752 1.557 1.128 2.752 1.128.48 0 .904-.059 1.272-.176.368-.117.685-.28.952-.488.267-.208.48-.453.64-.736a3.03 3.03 0 0 0 .336-.904h-.576a2.232 2.232 0 0 1-.824 1.272c-.421.325-1.005.488-1.752.488-.544 0-1.013-.09-1.408-.272a2.71 2.71 0 0 1-.984-.752 3.082 3.082 0 0 1-.576-1.152 5.628 5.628 0 0 1-.184-1.488zm-3.408-3.984c.512 0 .944.085 1.296.256.352.17.64.408.864.712.224.304.387.67.488 1.096.101.427.152.89.152 1.392h-5.872c.064-1.141.368-2.003.912-2.584s1.264-.872 2.16-.872zm12.096 5.248h-.592c-.139.768-.437 1.36-.896 1.776-.459.416-1.077.624-1.856.624-.533 0-.992-.093-1.376-.28a2.572 2.572 0 0 1-.952-.784 3.464 3.464 0 0 1-.56-1.2 5.903 5.903 0 0 1-.184-1.512c0-.555.061-1.07.184-1.544.123-.475.312-.883.568-1.224.256-.341.579-.608.968-.8.39-.192.85-.288 1.384-.288.757 0 1.344.197 1.76.592.416.395.699.944.848 1.648l.56-.128c-.181-.864-.536-1.523-1.064-1.976-.528-.453-1.224-.68-2.088-.68-.576 0-1.096.101-1.56.304a3.26 3.26 0 0 0-1.184.872 3.97 3.97 0 0 0-.752 1.384c-.176.544-.264 1.163-.264 1.856 0 1.333.328 2.384.984 3.152.656.768 1.56 1.152 2.712 1.152.96 0 1.725-.267 2.296-.8.57-.533.925-1.248 1.064-2.144zm2.384-4.976v5.488c0 .32.032.621.096.904.064.283.173.533.328.752.155.219.363.39.624.512.261.123.595.184 1 .184.256 0 .501-.024.736-.072.235-.048.427-.11.576-.184l-.16-.48a2.962 2.962 0 0 1-1.088.208c-.544 0-.93-.152-1.16-.456-.23-.304-.344-.744-.344-1.32V9.146h2.576v-.544h-2.576V6.33h-.608v2.272h-1.264v.544zm4.72-.544v8.208h.608V8.602zm-.016-3.216v1.472h.64V5.386zm5.264 11.424h.704l3.36-8.208h-.64l-3.072 7.536-3.04-7.536h-.672zm5.344-8.208v8.208h.608V8.602zm-.016-3.216v1.472h.64V5.386zm3.376 3.76v5.488c0 .32.032.621.096.904.064.283.173.533.328.752.155.219.363.39.624.512.261.123.595.184 1 .184.256 0 .501-.024.736-.072.235-.048.427-.11.576-.184l-.16-.48a2.962 2.962 0 0 1-1.088.208c-.544 0-.93-.152-1.16-.456-.23-.304-.344-.744-.344-1.32V9.146h2.576v-.544h-2.576V6.33h-.608v2.272h-1.264v.544zm4.368-.544h-.672l3.568 8.112-.496 1.232c-.213.544-.43.917-.648 1.12-.219.203-.51.304-.872.304a2.68 2.68 0 0 1-.864-.144l-.144.512c.181.053.35.096.504.128.155.032.339.048.552.048.277 0 .52-.043.728-.128.208-.085.387-.203.536-.352.15-.15.283-.328.4-.536.117-.208.224-.435.32-.68l3.856-9.616h-.656l-2.896 7.408z"/></svg>