<svg width="467" height="30" viewBox="0 0 467 30" xmlns="http://www.w3.org/2000/svg"><path d="M5.39 23.5V10.102H.418v-2.31h12.584v2.31h-4.95V23.5H5.39zm9.46-15.708h2.486v5.852q.726-.99 1.683-1.463.957-.473 2.035-.473 3.828 0 3.828 4.224V23.5h-2.508v-7.172q0-1.386-.506-1.947-.506-.561-1.496-.561-.682 0-1.243.242t-.957.638q-.396.396-.616.913-.22.517-.22 1.067v6.82H14.85V7.792zm20.526 12.32h2.42q-.308 1.782-1.518 2.761-1.21.979-3.476.979-2.728 0-4.147-1.573t-1.419-4.433q0-1.474.407-2.618t1.144-1.925q.737-.781 1.76-1.188 1.023-.407 2.255-.407 1.32 0 2.288.407.968.407 1.606 1.144.638.737.946 1.76.308 1.023.308 2.277v1.1h-8.206q.044 1.562.792 2.53.748.968 2.266.968 1.188 0 1.782-.462.594-.462.792-1.32zm-5.588-3.454h5.72q0-1.408-.66-2.222-.66-.814-2.112-.814-1.386 0-2.112.825-.726.825-.836 2.211zm15.488 11.11V12.06h2.442v1.584q.704-.946 1.617-1.441.913-.495 2.101-.495 1.21 0 2.112.429.902.429 1.507 1.221.605.792.902 1.903.297 1.111.297 2.475 0 1.386-.352 2.519-.352 1.133-1.001 1.936-.649.803-1.573 1.232-.924.429-2.09.429-.924 0-1.804-.352t-1.65-1.298v5.566h-2.508zm2.486-10.34v.55q0 1.122.242 1.859.242.737.649 1.177.407.44.946.616.539.176 1.133.176.616 0 1.144-.22.528-.22.924-.704t.616-1.254q.22-.77.22-1.87 0-1.122-.231-1.881-.231-.759-.616-1.232t-.891-.671q-.506-.198-1.056-.198-1.342 0-2.211.88-.869.88-.869 2.772zm17.842.66l-1.606.066q-1.122.066-1.815.242-.693.176-1.067.451t-.495.638q-.121.363-.121.781 0 .748.473 1.166.473.418 1.397.418 1.65 0 2.442-.836.792-.836.792-2.266v-.66zm.044 5.412v-1.496q-.638.77-1.562 1.276t-2.244.506q-.814 0-1.518-.209-.704-.209-1.221-.627-.517-.418-.814-1.067-.297-.649-.297-1.529 0-1.188.528-1.925.528-.737 1.375-1.155.847-.418 1.903-.583 1.056-.165 2.112-.209l1.694-.088v-.484q0-1.298-.627-1.793-.627-.495-1.639-.495-1.166 0-1.727.396-.561.396-.737 1.144l-2.288-.242q.308-1.672 1.518-2.442 1.21-.77 3.322-.77 1.364 0 2.255.352.891.352 1.419.968t.737 1.463q.209.847.209 1.859v7.15h-2.398zm5.83-9.46h-1.804v-1.98h1.804V8.98h2.486v3.08h2.838v1.98h-2.838v5.984q0 .88.363 1.276t1.067.396q.374 0 .715-.044.341-.044.671-.154l.374 1.87q-1.056.352-2.288.352-1.892 0-2.64-.979-.748-.979-.748-2.937V14.04zm7.304-6.248h2.486v5.852q.726-.99 1.683-1.463.957-.473 2.035-.473 3.828 0 3.828 4.224V23.5h-2.508v-7.172q0-1.386-.506-1.947-.506-.561-1.496-.561-.682 0-1.243.242t-.957.638q-.396.396-.616.913-.22.517-.22 1.067v6.82h-2.486V7.792zm18.37 6.248h-1.804v-1.98h1.804V8.98h2.486v3.08h2.838v1.98h-2.838v5.984q0 .88.363 1.276t1.067.396q.374 0 .715-.044.341-.044.671-.154l.374 1.87q-1.056.352-2.288.352-1.892 0-2.64-.979-.748-.979-.748-2.937V14.04zm12.562 7.788q1.584 0 2.321-1.089.737-1.089.737-2.981 0-1.87-.737-2.948-.737-1.078-2.321-1.078t-2.321 1.089q-.737 1.089-.737 2.937 0 1.87.715 2.97t2.343 1.1zm-.022 2.024q-2.684 0-4.158-1.584-1.474-1.584-1.474-4.488 0-1.364.385-2.486t1.111-1.914q.726-.792 1.782-1.232 1.056-.44 2.398-.44 1.364 0 2.42.451 1.056.451 1.771 1.243.715.792 1.078 1.903.363 1.111.363 2.431 0 1.496-.418 2.629t-1.177 1.914q-.759.781-1.793 1.177-1.034.396-2.288.396zm12.936-4.51h2.486q.088.594.275 1.045.187.451.506.748t.814.44q.495.143 1.199.143 1.254 0 1.969-.737.715-.737.715-2.387 0-1.43-.671-2.178t-2.057-.748q-.924 0-1.584.297t-1.188.869h-2.134l.726-8.536h8.514v2.2h-6.446l-.352 3.982q.616-.418 1.375-.638.759-.22 1.573-.22 1.298 0 2.2.429.902.429 1.463 1.122.561.693.814 1.584.253.891.253 1.793 0 1.386-.385 2.387-.385 1.001-1.067 1.661-.682.66-1.617.979-.935.319-2.013.319-2.508 0-3.85-1.111t-1.518-3.443zm20.46-4.18h5.94v6.468q-1.21 1.122-2.86 1.694-1.65.572-3.322.572-1.826 0-3.201-.583t-2.299-1.65q-.924-1.067-1.386-2.585-.462-1.518-.462-3.41 0-1.914.506-3.443.506-1.529 1.43-2.607.924-1.078 2.244-1.65 1.32-.572 2.948-.572 1.43 0 2.497.363t1.804 1.001q.737.638 1.188 1.485.451.847.649 1.815l-2.618.374q-.176-.66-.429-1.177t-.66-.869q-.407-.352-1.001-.539-.594-.187-1.43-.187-1.1 0-1.925.429t-1.375 1.221q-.55.792-.814 1.892-.264 1.1-.264 2.442 0 1.386.264 2.486.264 1.1.836 1.881.572.781 1.441 1.199.869.418 2.101.418 1.1 0 1.98-.231.88-.231 1.694-.803v-3.19h-3.476v-2.244zm12.782 4.84h2.398q.066.572.308.935.242.363.605.583.363.22.847.297.484.077 1.034.077 1.254 0 1.804-.374t.55-1.1q0-.572-.341-.968t-1.397-.572q-1.364-.242-2.398-.462-1.034-.22-1.738-.605t-1.056-.99q-.352-.605-.352-1.639 0-.792.352-1.441t.979-1.1q.627-.451 1.496-.693.869-.242 1.903-.242 1.32 0 2.2.264.88.264 1.43.726.55.462.836 1.056.286.594.44 1.254l-2.244.308q-.264-.858-.803-1.276-.539-.418-1.793-.418-.726 0-1.188.132-.462.132-.737.33-.275.198-.374.44-.099.242-.099.484 0 .374.088.616t.319.396q.231.154.627.264.396.11.99.22l1.43.242q1.144.198 1.903.506.759.308 1.21.759.451.451.627 1.045.176.594.176 1.32 0 1.562-1.188 2.519-1.188.957-3.608.957-.99 0-1.903-.187t-1.639-.627q-.726-.44-1.177-1.177-.451-.737-.517-1.859zm12.342-12.21h2.486v5.852q.726-.99 1.683-1.463.957-.473 2.035-.473 3.828 0 3.828 4.224V23.5h-2.508v-7.172q0-1.386-.506-1.947-.506-.561-1.496-.561-.682 0-1.243.242t-.957.638q-.396.396-.616.913-.22.517-.22 1.067v6.82h-2.486V7.792zm18.04 14.036q1.584 0 2.321-1.089.737-1.089.737-2.981 0-1.87-.737-2.948-.737-1.078-2.321-1.078t-2.321 1.089q-.737 1.089-.737 2.937 0 1.87.715 2.97t2.343 1.1zm-.022 2.024q-2.684 0-4.158-1.584-1.474-1.584-1.474-4.488 0-1.364.385-2.486t1.111-1.914q.726-.792 1.782-1.232 1.056-.44 2.398-.44 1.364 0 2.42.451 1.056.451 1.771 1.243.715.792 1.078 1.903.363 1.111.363 2.431 0 1.496-.418 2.629t-1.177 1.914q-.759.781-1.793 1.177-1.034.396-2.288.396zm8.074-11.792h2.486v7.194q0 1.43.473 1.958t1.441.528q.528 0 1.067-.198.539-.198.957-.572.418-.374.682-.902.264-.528.264-1.188v-6.82h2.508V23.5h-2.442v-1.672q-.792 1.056-1.716 1.54-.924.484-1.98.484-2.002 0-2.871-1.034-.869-1.034-.869-3.168v-7.59zm12.738-4.268h2.508V23.5h-2.508V7.792zm13.464 10.34v-.594q0-1.078-.231-1.815-.231-.737-.638-1.166-.407-.429-.946-.616-.539-.187-1.133-.187-1.386 0-2.145.99-.759.99-.759 3.014 0 1.1.209 1.87t.594 1.254q.385.484.891.704.506.22 1.1.22 1.364 0 2.211-.891.847-.891.847-2.783zm.022 5.368v-1.584q-.704.968-1.595 1.452t-2.079.484q-1.232 0-2.134-.44-.902-.44-1.496-1.243-.594-.803-.891-1.914-.297-1.111-.297-2.453 0-1.254.308-2.343t.902-1.892q.594-.803 1.463-1.287.869-.484 2.013-.528.22-.022.44-.011t.462.033q.77.088 1.485.429.715.341 1.375 1.133V7.792h2.486V23.5h-2.442zm5.302-11.44h2.42v1.672q.77-1.056 1.727-1.54.957-.484 2.057-.484 3.828 0 3.828 4.224V23.5h-2.508v-7.172q0-1.386-.506-1.947-.506-.561-1.496-.561-.66 0-1.221.231t-.957.627q-.396.396-.627.913-.231.517-.231 1.089v6.82h-2.486V12.06zm12.782-4.268h2.53l-1.276 5.17h-1.914l.66-5.17zm5.61 6.248h-1.804v-1.98h1.804V8.98h2.486v3.08h2.838v1.98h-2.838v5.984q0 .88.363 1.276t1.067.396q.374 0 .715-.044.341-.044.671-.154l.374 1.87q-1.056.352-2.288.352-1.892 0-2.64-.979-.748-.979-.748-2.937V14.04zm14.674 3.938v.176q.022 1.1.275 1.804t.66 1.122q.407.418.935.572.528.154 1.1.154.616 0 1.144-.22.528-.22.924-.693t.616-1.243q.22-.77.22-1.892 0-1.078-.231-1.837-.231-.759-.605-1.232t-.891-.693q-.517-.22-1.067-.22-.814 0-1.397.264-.583.264-.957.748t-.55 1.155q-.176.671-.176 1.485v.55zm-2.464-10.186h2.486v5.764q.682-.902 1.573-1.375.891-.473 2.079-.473 1.232 0 2.134.44.902.44 1.496 1.232t.891 1.903q.297 1.111.297 2.453 0 1.408-.352 2.541t-1.012 1.925q-.66.792-1.584 1.221-.924.429-2.068.429-1.034 0-1.914-.396-.88-.396-1.606-1.32V23.5h-2.42V7.792zm21.164 12.32h2.42q-.308 1.782-1.518 2.761-1.21.979-3.476.979-2.728 0-4.147-1.573t-1.419-4.433q0-1.474.407-2.618t1.144-1.925q.737-.781 1.76-1.188 1.023-.407 2.255-.407 1.32 0 2.288.407.968.407 1.606 1.144.638.737.946 1.76.308 1.023.308 2.277v1.1h-8.206q.044 1.562.792 2.53.748.968 2.266.968 1.188 0 1.782-.462.594-.462.792-1.32zm-5.588-3.454h5.72q0-1.408-.66-2.222-.66-.814-2.112-.814-1.386 0-2.112.825-.726.825-.836 2.211zm22.396 1.43l-1.606.066q-1.122.066-1.815.242-.693.176-1.067.451t-.495.638q-.121.363-.121.781 0 .748.473 1.166.473.418 1.397.418 1.65 0 2.442-.836.792-.836.792-2.266v-.66zm.044 5.412v-1.496q-.638.77-1.562 1.276t-2.244.506q-.814 0-1.518-.209-.704-.209-1.221-.627-.517-.418-.814-1.067-.297-.649-.297-1.529 0-1.188.528-1.925.528-.737 1.375-1.155.847-.418 1.903-.583 1.056-.165 2.112-.209l1.694-.088v-.484q0-1.298-.627-1.793-.627-.495-1.639-.495-1.166 0-1.727.396-.561.396-.737 1.144l-2.288-.242q.308-1.672 1.518-2.442 1.21-.77 3.322-.77 1.364 0 2.255.352.891.352 1.419.968t.737 1.463q.209.847.209 1.859v7.15h-2.398zm10.032 4.268V12.06h2.442v1.584q.704-.946 1.617-1.441.913-.495 2.101-.495 1.21 0 2.112.429.902.429 1.507 1.221.605.792.902 1.903.297 1.111.297 2.475 0 1.386-.352 2.519-.352 1.133-1.001 1.936-.649.803-1.573 1.232-.924.429-2.09.429-.924 0-1.804-.352t-1.65-1.298v5.566h-2.508zm2.486-10.34v.55q0 1.122.242 1.859.242.737.649 1.177.407.44.946.616.539.176 1.133.176.616 0 1.144-.22.528-.22.924-.704t.616-1.254q.22-.77.22-1.87 0-1.122-.231-1.881-.231-.759-.616-1.232t-.891-.671q-.506-.198-1.056-.198-1.342 0-2.211.88-.869.88-.869 2.772zm10.868-5.368h2.486v7.194q0 1.43.473 1.958t1.441.528q.528 0 1.067-.198.539-.198.957-.572.418-.374.682-.902.264-.528.264-1.188v-6.82h2.508V23.5h-2.442v-1.672q-.792 1.056-1.716 1.54-.924.484-1.98.484-2.002 0-2.871-1.034-.869-1.034-.869-3.168v-7.59zm11.99 9.68l6.116-7.7h-5.984v-1.98h9.13v1.76l-6.094 7.7h6.402l-.286 1.98h-9.284v-1.76zm10.648 0l6.116-7.7h-5.984v-1.98h9.13v1.76l-6.094 7.7h6.402l-.286 1.98h-9.284v-1.76zm11.396-13.948h2.508V23.5h-2.508V7.792zm13.134 12.32h2.42q-.308 1.782-1.518 2.761-1.21.979-3.476.979-2.728 0-4.147-1.573t-1.419-4.433q0-1.474.407-2.618t1.144-1.925q.737-.781 1.76-1.188 1.023-.407 2.255-.407 1.32 0 2.288.407.968.407 1.606 1.144.638.737.946 1.76.308 1.023.308 2.277v1.1h-8.206q.044 1.562.792 2.53.748.968 2.266.968 1.188 0 1.782-.462.594-.462.792-1.32zm-5.588-3.454h5.72q0-1.408-.66-2.222-.66-.814-2.112-.814-1.386 0-2.112.825-.726.825-.836 2.211z"/></svg>