<svg version="1.1" id="Layer_1" xmlns="http://www.w3.org/2000/svg" xmlns:xlink="http://www.w3.org/1999/xlink" x="0px" y="0px" viewBox="0 0 391 137.3" style="enable-background:new 0 0 391 137.3;" xml:space="preserve" width="100%" height="100%"><style type="text/css"> .st0{fill:#D21924;} </style><path class="st0" d="M72.9,48.8c-6.2-1.8-14.8-3.4-20.7-3.4C28,45.4,8.3,60.2,8.3,86.8c0,27.1,19,40.9,41.8,40.9 c6.6,0,16.9-1.3,22.8-4.3v-20.9c-5.2,2-11.2,2.9-16,2.9c-9.8,0-21.4-5.8-21.4-18c0-14,11-19.3,21.8-19.3c5.2,0,11.1,1.6,15.6,2.9 V48.8z"/><path class="st0" d="M325.3,109.8c-5.7,0-9.7-3.2-9.7-8.6v-0.3c0-5.8,4.6-9.7,12.6-9.7c4.1,0,7.7,1.2,10.8,2.5 C338.9,103.8,333.2,109.8,325.3,109.8 M315.4,127.1c10.3,0,17.7-3.9,23.1-9.9v8.1h26.7V80.2c0-11-1.9-19.2-7.8-25 c-6.2-6.2-15.8-9.6-29.9-9.6c-11.5,0-22.1,2.9-32.3,6.2v19.8c8.8-3.3,19.5-4.9,27.8-4.9c10.6,0,15.7,4.7,15.7,12.8v1.3 c-4.5-1.6-11.6-3.1-18.9-3.1c-18.4,0-30.8,8.4-30.8,24.7v0.3C288.9,118.5,300.4,127.1,315.4,127.1"/><path class="st0" d="M205.9,47.8h26.4v11.9l1.1-1.4c5-6.5,12.1-12.5,23.1-12.5c16.3,0,26.1,10.7,26.1,28.3v51.3h-26.4V82.9 c0-8.8-4.7-13.8-11.6-13.8c-7.1,0-12.2,5-12.2,13.8v42.4h-26.4V47.8z"/><path class="st0" d="M169.6,81.7c9-11.4,1.8-18.2-6.3-16.3c-7.1,1.7-18.1,13.2-9.1,29.6C160.6,90.8,165.9,86.3,169.6,81.7 M197.9,115.6c-8.3,5.6-19.6,11.6-33.3,11.6c-10,0-18.9-3.2-25.7-8c-14.2,6.4-24.8,8.6-35.6,6.6c-17.4-3.1-19.9-18.7-19.9-28.8V48.5 H108c0,0,0.1,23.6,0.7,40.3c0.5,13.9,3.5,21.3,18.8,16.8c-2.7-5.6-4.2-12.3-4.1-19.5c0.4-22.7,18-43.1,41.2-43.1 c26.4,0,32.6,22.3,23,37.6c-6,9.6-15.1,17.6-24.7,24.2c9.4,6.9,24.5,2,34.8-4.7V115.6z"/><path class="st0" d="M110.6,23.1c0,8.1-6.5,14.6-14.6,14.6c-8.1,0-14.6-6.5-14.6-14.6C81.4,15,87.9,8.5,96,8.5 C104.1,8.5,110.6,15,110.6,23.1"/><path class="st0" d="M377.8,120.2h1c0.8,0,1.5,0,1.5-0.9c0-0.8-0.7-0.9-1.3-0.9h-1.2V120.2z M377,117.8h2.1c1.3,0,2,0.5,2,1.6 c0,1-0.6,1.4-1.5,1.5l1.6,2.5h-0.8l-1.5-2.4h-1v2.4H377V117.8z M378.8,124.6c2.3,0,4.1-1.8,4.1-4.1c0-2.3-1.8-4.1-4.1-4.1 c-2.3,0-4.1,1.8-4.1,4.1C374.7,122.8,376.5,124.6,378.8,124.6 M378.8,115.7c2.6,0,4.9,2.1,4.9,4.8c0,2.8-2.2,4.8-4.9,4.8 c-2.6,0-4.9-2.1-4.9-4.8C373.9,117.8,376.2,115.7,378.8,115.7"/></svg>